<svg xmlns="http://www.w3.org/2000/svg" xmlns:xlink="http://www.w3.org/1999/xlink" xmlns:s="https://github.com/nturley/netlistsvg" width="300" height="312">
  <style>svg {
    stroke: #000;
    fill: none;
  }
  text {
    fill: #000;
    stroke: none;
    font-size: 10px;
    font-weight: bold;
    font-family: "Courier New", monospace;
  }
  .nodelabel {
    text-anchor: middle;
  }
  .inputPortLabel {
    text-anchor: end;
  }
  .splitjoinBody {
    fill: #000;
  }
  .symbol {
    stroke-linejoin: round;
    stroke-linecap: round;
    stroke-width: 2;
  }
  .detail {
    stroke-linejoin: round;
    stroke-linecap: round;
    fill: #000;
  }</style><rect width="100%" height="100%" fill="white"/>
  <g s:type="generic" s:width="30" s:height="40" transform="translate(150,122)" id="cell_V1">
    <text x="15" y="-4" class="nodelabel cell_V1" s:attribute="ref">triode</text>
    <rect width="30" height="40" x="0" y="0" s:generic="body" class="cell_V1"/>
    <g transform="translate(0,10)" s:x="0" s:y="10" s:pid="in0" s:position="left" id="port_V1~G">
      <text x="-3" y="-4" class="inputPortLabel cell_V1">G</text>
    </g>
    <g transform="translate(0,30)" s:x="0" s:y="10" s:pid="in0" s:position="left" id="port_V1~K">
      <text x="-3" y="-4" class="inputPortLabel cell_V1">K</text>
    </g>
    <g transform="translate(30,10)" s:x="30" s:y="10" s:pid="out0" s:position="right" id="port_V1~P">
      <text x="5" y="-4" class="cell_V1">P</text>
    </g>
  </g>
  <g s:type="resistor_v" s:width="10" s:height="50" transform="translate(193,57)" id="cell_R_plate">
    <s:alias val="r_v"/>
    <text x="15" y="15" s:attribute="ref" class="cell_R_plate">R_plate</text>
    <text x="15" y="30" s:attribute="value" class="cell_R_plate">100kΩ</text>
    <path d="M0,10 V40 H10 V10 Z" class="symbol cell_R_plate"/>
    <path d="M5,0 V10 M5,40 V50" class="connect cell_R_plate"/>
    <g s:x="5" s:y="0" s:pid="A" s:position="top"/>
    <g s:x="5" s:y="50" s:pid="B" s:position="bottom"/>
  </g>
  <g s:type="resistor_v" s:width="10" s:height="50" transform="translate(47,142.5)" id="cell_R_grid">
    <s:alias val="r_v"/>
    <text x="15" y="15" s:attribute="ref" class="cell_R_grid">R_grid</text>
    <text x="15" y="30" s:attribute="value" class="cell_R_grid">1MΩ</text>
    <path d="M0,10 V40 H10 V10 Z" class="symbol cell_R_grid"/>
    <path d="M5,0 V10 M5,40 V50" class="connect cell_R_grid"/>
    <g s:x="5" s:y="0" s:pid="A" s:position="top"/>
    <g s:x="5" s:y="50" s:pid="B" s:position="bottom"/>
  </g>
  <g s:type="resistor_v" s:width="10" s:height="50" transform="translate(189,185)" id="cell_R_cath">
    <s:alias val="r_v"/>
    <text x="15" y="15" s:attribute="ref" class="cell_R_cath">R_cath</text>
    <text x="15" y="30" s:attribute="value" class="cell_R_cath">1.5kΩ</text>
    <path d="M0,10 V40 H10 V10 Z" class="symbol cell_R_cath"/>
    <path d="M5,0 V10 M5,40 V50" class="connect cell_R_cath"/>
    <g s:x="5" s:y="0" s:pid="A" s:position="top"/>
    <g s:x="5" s:y="50" s:pid="B" s:position="bottom"/>
  </g>
  <g s:type="capacitor_v" s:width="30" s:height="50" transform="translate(118,185)" id="cell_C_cath">
    <s:alias val="c_v"/>
    <text x="25" y="10" s:attribute="ref" class="cell_C_cath">C_cath</text>
    <text x="25" y="45" s:attribute="value" class="cell_C_cath">22µF</text>
    <path d="M0,20 H30 M0,30 H30" class="symbol cell_C_cath"/>
    <path d="M15,0 V20 M15,30 V50" class="connect cell_C_cath"/>
    <g s:x="15" s:y="0" s:pid="A" s:position="top"/>
    <g s:x="15" s:y="50" s:pid="B" s:position="bottom"/>
  </g>
  <g s:type="vcc" s:width="20" s:height="30" transform="translate(188,22)" id="cell_VBB">
    <s:alias val="vcc"/>
    <text x="10" y="-4" class="nodelabel cell_VBB" s:attribute="name">+V_B+</text>
    <path d="M0,0 H20 L10,15 Z M10,15 V30" class="cell_VBB"/>
    <g s:x="10" s:y="30" s:pid="A" s:position="bottom"/>
  </g>
  <g s:type="gnd" s:width="20" s:height="30" transform="translate(123,270)" id="cell_GND">
    <s:alias val="gnd"/>
    <text x="30" y="20" class="nodelabel cell_GND" s:attribute="name">GND</text>
    <path d="M0,0 H20 M3,5 H17 M7,10 H13 M10,0 V-15" class="cell_GND"/>
    <g s:x="10" s:y="-15" s:pid="A" s:position="top"/>
  </g>
  <g s:type="inputExt" s:width="30" s:height="20" transform="translate(12,112.5)" id="cell_input">
    <text x="15" y="-4" class="cell_input" s:attribute="ref">input</text>
    <s:alias val="$_inputExt_"/>
    <path d="M0,0 V20 H15 L30,10 15,0 Z" class="cell_input"/>
    <g s:x="30" s:y="10" s:pid="Y" s:position="right"/>
  </g>
  <g s:type="outputExt" s:width="30" s:height="20" transform="translate(218,122)" id="cell_output">
    <text x="15" y="-4" class="cell_output" s:attribute="ref">output</text>
    <s:alias val="$_outputExt_"/>
    <path d="M30,0 V20 H15 L0,10 15,0 Z" class="cell_output"/>
    <g s:x="0" s:y="10" s:pid="A" s:position="left"/>
  </g>
  <line x1="198" x2="198" y1="52" y2="57" class="net_6"/>
  <line x1="150" x2="62" y1="132.5" y2="132.5" class="net_2"/>
  <line x1="62" x2="62" y1="132.5" y2="132.5" class="net_2"/>
  <line x1="62" x2="52" y1="132.5" y2="132.5" class="net_2"/>
  <circle cx="52" cy="132.5" r="2" style="fill:#000" class="net_2"/>
  <line x1="52" x2="52" y1="132.5" y2="142.5" class="net_2"/>
  <line x1="42" x2="52" y1="122.5" y2="122.5" class="net_2"/>
  <line x1="52" x2="52" y1="122.5" y2="142.5" class="net_2"/>
  <line x1="150" x2="133" y1="152.5" y2="152.5" class="net_5"/>
  <line x1="133" x2="133" y1="152.5" y2="175" class="net_5"/>
  <line x1="133" x2="194" y1="175" y2="175" class="net_5"/>
  <circle cx="133" cy="175" r="2" style="fill:#000" class="net_5"/>
  <line x1="194" x2="194" y1="175" y2="185" class="net_5"/>
  <line x1="150" x2="133" y1="152.5" y2="152.5" class="net_5"/>
  <line x1="133" x2="133" y1="152.5" y2="185" class="net_5"/>
  <line x1="52" x2="52" y1="192.5" y2="245" class="net_4"/>
  <line x1="52" x2="133" y1="245" y2="245" class="net_4"/>
  <circle cx="133" cy="245" r="2" style="fill:#000" class="net_4"/>
  <line x1="133" x2="133" y1="245" y2="255" class="net_4"/>
  <line x1="194" x2="194" y1="235" y2="245" class="net_4"/>
  <line x1="194" x2="133" y1="245" y2="245" class="net_4"/>
  <line x1="133" x2="133" y1="245" y2="255" class="net_4"/>
  <line x1="133" x2="133" y1="235" y2="255" class="net_4"/>
  <line x1="198" x2="198" y1="107" y2="132.5" class="net_3"/>
  <line x1="198" x2="181" y1="132.5" y2="132.5" class="net_3"/>
  <line x1="198" x2="198" y1="107" y2="122.5" class="net_3"/>
  <line x1="198" x2="208" y1="122.5" y2="122.5" class="net_3"/>
  <line x1="208" x2="208" y1="122.5" y2="132" class="net_3"/>
  <circle cx="198" cy="122.5" r="2" style="fill:#000" class="net_3"/>
  <line x1="208" x2="218" y1="132" y2="132" class="net_3"/>
</svg>
