<svg xmlns="http://www.w3.org/2000/svg" xmlns:xlink="http://www.w3.org/1999/xlink" xmlns:s="https://github.com/nturley/netlistsvg" width="203" height="354">
  <style>svg {
    stroke: #000;
    fill: none;
  }
  text {
    fill: #000;
    stroke: none;
    font-size: 10px;
    font-weight: bold;
    font-family: "Courier New", monospace;
  }
  .nodelabel {
    text-anchor: middle;
  }
  .inputPortLabel {
    text-anchor: end;
  }
  .splitjoinBody {
    fill: #000;
  }
  .symbol {
    stroke-linejoin: round;
    stroke-linecap: round;
    stroke-width: 2;
  }
  .detail {
    stroke-linejoin: round;
    stroke-linecap: round;
    fill: #000;
  }</style><rect width="100%" height="100%" fill="white"/>
  <g s:type="diode_v" s:width="20" s:height="50" transform="translate(42,47)" id="cell_D1">
    <s:alias val="d_v"/>
    <text x="25" y="25" s:attribute="ref" class="cell_D1">D1</text>
    <path d="M0,15 H20 L10,35 Z M0,35 H20" class="symbol cell_D1"/>
    <path d="M10,0 V15 M10,35 V50" class="connect cell_D1"/>
    <g s:x="10" s:y="0" s:pid="+" s:position="top"/>
    <g s:x="10" s:y="50" s:pid="-" s:position="bottom"/>
  </g>
  <g s:type="capacitor_v" s:width="30" s:height="50" transform="translate(37,172)" id="cell_C1">
    <s:alias val="c_v"/>
    <text x="25" y="10" s:attribute="ref" class="cell_C1">C1</text>
    <text x="25" y="45" s:attribute="value" class="cell_C1">47µF</text>
    <path d="M0,20 H30 M0,30 H30" class="symbol cell_C1"/>
    <path d="M15,0 V20 M15,30 V50" class="connect cell_C1"/>
    <g s:x="15" s:y="0" s:pid="A" s:position="top"/>
    <g s:x="15" s:y="50" s:pid="B" s:position="bottom"/>
  </g>
  <g s:type="resistor_v" s:width="10" s:height="50" transform="translate(72,117)" id="cell_R_filter">
    <s:alias val="r_v"/>
    <text x="15" y="15" s:attribute="ref" class="cell_R_filter">R_filter</text>
    <text x="15" y="30" s:attribute="value" class="cell_R_filter">100Ω</text>
    <path d="M0,10 V40 H10 V10 Z" class="symbol cell_R_filter"/>
    <path d="M5,0 V10 M5,40 V50" class="connect cell_R_filter"/>
    <g s:x="5" s:y="0" s:pid="A" s:position="top"/>
    <g s:x="5" s:y="50" s:pid="B" s:position="bottom"/>
  </g>
  <g s:type="capacitor_v" s:width="30" s:height="50" transform="translate(161,227)" id="cell_C2">
    <s:alias val="c_v"/>
    <text x="25" y="10" s:attribute="ref" class="cell_C2">C2</text>
    <text x="25" y="45" s:attribute="value" class="cell_C2">47µF</text>
    <path d="M0,20 H30 M0,30 H30" class="symbol cell_C2"/>
    <path d="M15,0 V20 M15,30 V50" class="connect cell_C2"/>
    <g s:x="15" s:y="0" s:pid="A" s:position="top"/>
    <g s:x="15" s:y="50" s:pid="B" s:position="bottom"/>
  </g>
  <g s:type="resistor_v" s:width="10" s:height="50" transform="translate(72,227)" id="cell_R_bleeder">
    <s:alias val="r_v"/>
    <text x="15" y="15" s:attribute="ref" class="cell_R_bleeder">R_bleeder</text>
    <text x="15" y="30" s:attribute="value" class="cell_R_bleeder">220kΩ</text>
    <path d="M0,10 V40 H10 V10 Z" class="symbol cell_R_bleeder"/>
    <path d="M5,0 V10 M5,40 V50" class="connect cell_R_bleeder"/>
    <g s:x="5" s:y="0" s:pid="A" s:position="top"/>
    <g s:x="5" s:y="50" s:pid="B" s:position="bottom"/>
  </g>
  <g s:type="gnd" s:width="20" s:height="30" transform="translate(67,312)" id="cell_GND">
    <s:alias val="gnd"/>
    <text x="30" y="20" class="nodelabel cell_GND" s:attribute="name">GND</text>
    <path d="M0,0 H20 M3,5 H17 M7,10 H13 M10,0 V-15" class="cell_GND"/>
    <g s:x="10" s:y="-15" s:pid="A" s:position="top"/>
  </g>
  <g s:type="inputExt" s:width="30" s:height="20" transform="translate(12,22)" id="cell_ac_in">
    <text x="15" y="-4" class="cell_ac_in" s:attribute="ref">ac_in</text>
    <s:alias val="$_inputExt_"/>
    <path d="M0,0 V20 H15 L30,10 15,0 Z" class="cell_ac_in"/>
    <g s:x="30" s:y="10" s:pid="Y" s:position="right"/>
  </g>
  <g s:type="outputExt" s:width="30" s:height="20" transform="translate(87,187)" id="cell_bplus_out">
    <text x="15" y="-4" class="cell_bplus_out" s:attribute="ref">bplus_out</text>
    <s:alias val="$_outputExt_"/>
    <path d="M30,0 V20 H15 L0,10 15,0 Z" class="cell_bplus_out"/>
    <g s:x="0" s:y="10" s:pid="A" s:position="left"/>
  </g>
  <line x1="42" x2="52" y1="32" y2="32" class="net_2"/>
  <line x1="52" x2="52" y1="32" y2="47" class="net_2"/>
  <line x1="52" x2="52" y1="97" y2="172" class="net_5"/>
  <line x1="52" x2="52" y1="97" y2="107" class="net_5"/>
  <line x1="52" x2="77" y1="107" y2="107" class="net_5"/>
  <circle cx="52" cy="107" r="2" style="fill:#000" class="net_5"/>
  <line x1="77" x2="77" y1="107" y2="117" class="net_5"/>
  <line x1="77" x2="77" y1="167" y2="197" class="net_3"/>
  <circle cx="77" cy="197" r="2" style="fill:#000" class="net_3"/>
  <line x1="77" x2="87" y1="197" y2="197" class="net_3"/>
  <line x1="87" x2="77" y1="197" y2="197" class="net_3"/>
  <line x1="77" x2="77" y1="197" y2="217" class="net_3"/>
  <line x1="77" x2="176" y1="217" y2="217" class="net_3"/>
  <circle cx="77" cy="217" r="2" style="fill:#000" class="net_3"/>
  <circle cx="77" cy="197" r="2" style="fill:#000" class="net_3"/>
  <line x1="176" x2="176" y1="217" y2="227" class="net_3"/>
  <line x1="87" x2="77" y1="197" y2="197" class="net_3"/>
  <circle cx="77" cy="197" r="2" style="fill:#000" class="net_3"/>
  <line x1="77" x2="77" y1="197" y2="227" class="net_3"/>
  <line x1="52" x2="52" y1="222" y2="287" class="net_4"/>
  <line x1="52" x2="77" y1="287" y2="287" class="net_4"/>
  <circle cx="77" cy="287" r="2" style="fill:#000" class="net_4"/>
  <line x1="77" x2="77" y1="287" y2="297" class="net_4"/>
  <line x1="176" x2="176" y1="277" y2="287" class="net_4"/>
  <line x1="176" x2="77" y1="287" y2="287" class="net_4"/>
  <line x1="77" x2="77" y1="287" y2="297" class="net_4"/>
  <line x1="77" x2="77" y1="277" y2="297" class="net_4"/>
</svg>
