<svg xmlns="http://www.w3.org/2000/svg" xmlns:xlink="http://www.w3.org/1999/xlink" xmlns:s="https://github.com/nturley/netlistsvg" width="178" height="279">
  <style>svg {
    stroke: #000;
    fill: none;
  }
  text {
    fill: #000;
    stroke: none;
    font-size: 10px;
    font-weight: bold;
    font-family: "Courier New", monospace;
  }
  .nodelabel {
    text-anchor: middle;
  }
  .inputPortLabel {
    text-anchor: end;
  }
  .splitjoinBody {
    fill: #000;
  }
  .symbol {
    stroke-linejoin: round;
    stroke-linecap: round;
    stroke-width: 2;
  }
  .detail {
    stroke-linejoin: round;
    stroke-linecap: round;
    fill: #000;
  }</style><rect width="100%" height="100%" fill="white"/>
  <g s:type="resistor_v" s:width="10" s:height="50" transform="translate(22,97)" id="cell_R_treble">
    <s:alias val="r_v"/>
    <text x="15" y="15" s:attribute="ref" class="cell_R_treble">R_treble</text>
    <text x="15" y="30" s:attribute="value" class="cell_R_treble">100kΩ</text>
    <path d="M0,10 V40 H10 V10 Z" class="symbol cell_R_treble"/>
    <path d="M5,0 V10 M5,40 V50" class="connect cell_R_treble"/>
    <g s:x="5" s:y="0" s:pid="A" s:position="top"/>
    <g s:x="5" s:y="50" s:pid="B" s:position="bottom"/>
  </g>
  <g s:type="capacitor_v" s:width="30" s:height="50" transform="translate(12,152)" id="cell_C_treble">
    <s:alias val="c_v"/>
    <text x="25" y="10" s:attribute="ref" class="cell_C_treble">C_treble</text>
    <text x="25" y="45" s:attribute="value" class="cell_C_treble">330pF</text>
    <path d="M0,20 H30 M0,30 H30" class="symbol cell_C_treble"/>
    <path d="M15,0 V20 M15,30 V50" class="connect cell_C_treble"/>
    <g s:x="15" s:y="0" s:pid="A" s:position="top"/>
    <g s:x="15" s:y="50" s:pid="B" s:position="bottom"/>
  </g>
  <g s:type="capacitor_v" s:width="30" s:height="50" transform="translate(105,62)" id="cell_C_bass">
    <s:alias val="c_v"/>
    <text x="25" y="10" s:attribute="ref" class="cell_C_bass">C_bass</text>
    <text x="25" y="45" s:attribute="value" class="cell_C_bass">0.022µF</text>
    <path d="M0,20 H30 M0,30 H30" class="symbol cell_C_bass"/>
    <path d="M15,0 V20 M15,30 V50" class="connect cell_C_bass"/>
    <g s:x="15" s:y="0" s:pid="A" s:position="top"/>
    <g s:x="15" s:y="50" s:pid="B" s:position="bottom"/>
  </g>
  <g s:type="resistor_v" s:width="10" s:height="50" transform="translate(115,152)" id="cell_R_out">
    <s:alias val="r_v"/>
    <text x="15" y="15" s:attribute="ref" class="cell_R_out">R_out</text>
    <text x="15" y="30" s:attribute="value" class="cell_R_out">100kΩ</text>
    <path d="M0,10 V40 H10 V10 Z" class="symbol cell_R_out"/>
    <path d="M5,0 V10 M5,40 V50" class="connect cell_R_out"/>
    <g s:x="5" s:y="0" s:pid="A" s:position="top"/>
    <g s:x="5" s:y="50" s:pid="B" s:position="bottom"/>
  </g>
  <g s:type="gnd" s:width="20" s:height="30" transform="translate(110,237)" id="cell_GND">
    <s:alias val="gnd"/>
    <text x="30" y="20" class="nodelabel cell_GND" s:attribute="name">GND</text>
    <path d="M0,0 H20 M3,5 H17 M7,10 H13 M10,0 V-15" class="cell_GND"/>
    <g s:x="10" s:y="-15" s:pid="A" s:position="top"/>
  </g>
  <g s:type="inputExt" s:width="30" s:height="20" transform="translate(80,22)" id="cell_input">
    <text x="15" y="-4" class="cell_input" s:attribute="ref">input</text>
    <s:alias val="$_inputExt_"/>
    <path d="M0,0 V20 H15 L30,10 15,0 Z" class="cell_input"/>
    <g s:x="30" s:y="10" s:pid="Y" s:position="right"/>
  </g>
  <g s:type="outputExt" s:width="30" s:height="20" transform="translate(130,127)" id="cell_output">
    <text x="15" y="-4" class="cell_output" s:attribute="ref">output</text>
    <s:alias val="$_outputExt_"/>
    <path d="M30,0 V20 H15 L0,10 15,0 Z" class="cell_output"/>
    <g s:x="0" s:y="10" s:pid="A" s:position="left"/>
  </g>
  <line x1="110" x2="120" y1="32" y2="32" class="net_2"/>
  <line x1="120" x2="120" y1="32" y2="52" class="net_2"/>
  <line x1="120" x2="27" y1="52" y2="52" class="net_2"/>
  <circle cx="120" cy="52" r="2" style="fill:#000" class="net_2"/>
  <line x1="27" x2="27" y1="52" y2="97" class="net_2"/>
  <line x1="110" x2="120" y1="32" y2="32" class="net_2"/>
  <line x1="120" x2="120" y1="32" y2="62" class="net_2"/>
  <line x1="27" x2="27" y1="147" y2="152" class="net_5"/>
  <line x1="120" x2="120" y1="112" y2="137" class="net_3"/>
  <circle cx="120" cy="137" r="2" style="fill:#000" class="net_3"/>
  <line x1="120" x2="130" y1="137" y2="137" class="net_3"/>
  <line x1="130" x2="120" y1="137" y2="137" class="net_3"/>
  <circle cx="120" cy="137" r="2" style="fill:#000" class="net_3"/>
  <line x1="120" x2="120" y1="137" y2="152" class="net_3"/>
  <line x1="27" x2="27" y1="202" y2="212" class="net_4"/>
  <line x1="27" x2="120" y1="212" y2="212" class="net_4"/>
  <circle cx="120" cy="212" r="2" style="fill:#000" class="net_4"/>
  <line x1="120" x2="120" y1="212" y2="222" class="net_4"/>
  <line x1="120" x2="120" y1="202" y2="222" class="net_4"/>
</svg>
